<svg width="30" height="30" viewBox="0 0 217 210" fill="none" xmlns="http://www.w3.org/2000/svg" xmlns:xlink="http://www.w3.org/1999/xlink">
	<desc>
			Created with Pixso.
	</desc>
	<defs/>
	<path id="矢量 117" d="M157.32 0C138.44 0 120.32 9.26 108.5 23.91C96.67 9.26 78.55 0 59.67 0C26.25 0 0 27.69 0 62.94C0 106.2 36.88 141.45 92.76 195L108.5 210L124.23 194.89C180.11 141.45 217 106.2 217 62.94C217 27.69 190.74 0 157.32 0ZM109.58 177.95L108.5 179.1L107.41 177.95C55.76 128.63 21.7 96.01 21.7 62.94C21.7 40.05 37.97 22.88 59.67 22.88C76.38 22.88 92.65 34.21 98.4 49.89L118.69 49.89C124.34 34.21 140.61 22.88 157.32 22.88C179.02 22.88 195.3 40.05 195.3 62.94C195.3 96.01 161.23 128.63 109.58 177.95Z" fill="#C9C9C9" fill-opacity="1.000000" fill-rule="evenodd"/>
</svg>
