<svg width="45.000000" height="45.000000" viewBox="0 0 45 45" fill="none" xmlns="http://www.w3.org/2000/svg" xmlns:xlink="http://www.w3.org/1999/xlink">
	<desc>
			Created with Pixso.
	</desc>
	<defs/>
	<path id="矢量 109" d="M35 24.75L22.5 24.75L22.5 36L35 36L35 24.75ZM32.5 0L32.5 4.5L12.5 4.5L12.5 0L7.5 0L7.5 4.5L5 4.5C2.22 4.5 0.02 6.52 0.02 9L0 40.5C0 42.97 2.22 45 5 45L40 45C42.75 45 45 42.97 45 40.5L45 9C45 6.52 42.75 4.5 40 4.5L37.5 4.5L37.5 0L32.5 0ZM40 40.5L5 40.5L5 15.75L40 15.75L40 40.5Z" fill="#2563EA" fill-opacity="1.000000" fill-rule="evenodd"/>
</svg>
