<svg width="45.000000" height="45.000000" viewBox="0 0 45 45" fill="none" xmlns="http://www.w3.org/2000/svg" xmlns:xlink="http://www.w3.org/1999/xlink">
	<desc>
			Created with Pixso.
	</desc>
	<defs/>
	<path id="矢量 305" d="M32.62 22.5C35.73 22.5 38.22 18.9 38.22 14.46C38.22 10.02 35.73 6.42 32.62 6.42C29.52 6.42 27 10.02 27 14.46C27 18.9 29.52 22.5 32.62 22.5ZM15.75 19.28C19.48 19.28 22.47 14.97 22.47 9.64C22.47 4.3 19.48 0 15.75 0C12.01 0 9 4.3 9 9.64C9 14.97 12.01 19.28 15.75 19.28ZM32.62 28.92C28.5 28.92 20.25 31.88 20.25 37.76L20.25 45L45 45L45 37.76C45 31.88 36.74 28.92 32.62 28.92ZM15.75 25.71C10.5 25.71 0 29.47 0 36.96L0 45L15.75 45L15.75 37.76C15.75 35.03 16.49 30.24 21.08 26.61C19.12 26.03 17.23 25.71 15.75 25.71Z" fill="#2563EA" fill-opacity="1.000000" fill-rule="evenodd"/>
</svg>
