<svg width="30.000000" height="30.000000" viewBox="0 0 30 30" fill="none" xmlns="http://www.w3.org/2000/svg" xmlns:xlink="http://www.w3.org/1999/xlink">
	<desc>
			Created with Pixso.
	</desc>
	<defs/>
	<path id="矢量 52" d="M5.68 20.98L22.59 5.75L20.23 3.62L3.33 18.86L3.33 20.98L5.68 20.98ZM7.07 23.99L0 23.99L0 17.61L19.05 0.43C19.37 0.15 19.79 0 20.23 0C20.67 0 21.1 0.15 21.41 0.43L26.12 4.68C26.44 4.97 26.61 5.35 26.61 5.75C26.61 6.14 26.44 6.53 26.12 6.81L7.07 23.99L7.07 23.99ZM0 26.99L30 26.99L30 30L0 30L0 26.99Z" fill="#C9C9C9" fill-opacity="1.000000" fill-rule="evenodd"/>
</svg>
