<svg width="33.750000" height="33.750000" viewBox="0 0 33.75 33.75" fill="none" xmlns="http://www.w3.org/2000/svg" xmlns:xlink="http://www.w3.org/1999/xlink">
	<desc>
			Created with Pixso.
	</desc>
	<defs/>
	<path id="矢量 110" d="M13.29 23.6L15.93 26.25L25.31 16.87L15.93 7.5L13.29 10.14L18.13 15L0 15L0 18.75L18.13 18.75L13.29 23.6ZM30 0L3.75 0C1.66 0 0 1.68 0 3.75L0 11.25L3.75 11.25L3.75 3.75L30 3.75L30 30L3.75 30L3.75 22.5L0 22.5L0 30C0 32.06 1.66 33.75 3.75 33.75L30 33.75C32.06 33.75 33.75 32.06 33.75 30L33.75 3.75C33.75 1.68 32.06 0 30 0Z" fill="#FFFFFF" fill-opacity="1.000000" fill-rule="evenodd"/>
</svg>
