<svg width="16" height="16" viewBox="0 0 30 30" fill="none" xmlns="http://www.w3.org/2000/svg" xmlns:xlink="http://www.w3.org/1999/xlink">
	<desc>
			Created with Pixso.
	</desc>
	<defs/>
	<path id="Vector" d="M15 1.87C22.31 1.87 28.12 7.68 28.12 15C28.12 22.31 22.31 28.12 15 28.12C7.68 28.12 1.87 22.31 1.87 15C1.87 7.68 7.68 1.87 15 1.87ZM15 0C6.75 0 0 6.75 0 15C0 23.25 6.75 30 15 30C23.25 30 30 23.25 30 15C30 6.75 23.25 0 15 0Z" fill="#A4A0A0" fill-opacity="0.600000" fill-rule="evenodd"/>
	<path id="Vector" d="M13.12 5.62L16.87 5.62L16.87 18.75L13.12 18.75L13.12 5.62Z" fill="#A4A0A0" fill-opacity="0.600000" fill-rule="evenodd"/>
	<path id="Vector" d="M13.12 20.62L16.87 20.62L16.87 24.37L13.12 24.37L13.12 20.62Z" fill="#A4A0A0" fill-opacity="0.600000" fill-rule="evenodd"/>
</svg>
