<svg width="16" height="16" viewBox="0 0 170 164" fill="none" xmlns="http://www.w3.org/2000/svg" xmlns:xlink="http://www.w3.org/1999/xlink">
	<desc>
			Created with Pixso.
	</desc>
	<defs/>
	<path id="矢量 279" d="M157.85 41L157.85 16.39C157.85 7.37 146.92 0 133.57 0L36.42 0C23.07 0 12.14 7.37 12.14 16.39L12.14 41L0 41L0 90.2L36.42 139.39L36.42 164L133.57 164L133.57 139.39L170 90.2L170 41L157.85 41ZM36.42 16.39L133.57 16.39L133.57 41L109.28 41L109.28 24.6L97.14 24.6L97.14 41L72.85 41L72.85 24.6L60.71 24.6L60.71 41L36.42 41L36.42 16.39Z" fill="#2563EA" fill-opacity="1.000000" fill-rule="evenodd"/>
</svg>
