<svg width="30" height="30" viewBox="0 0 192.755 193.949" fill="none" xmlns="http://www.w3.org/2000/svg" xmlns:xlink="http://www.w3.org/1999/xlink">
	<desc>
			Created with Pixso.
	</desc>
	<defs/>
	<path id="矢量 118" d="M96.37 191.13L82.69 177.52C34.08 129.39 2 97.64 2 58.68C2 26.94 24.83 2 53.9 2C70.32 2 86.09 10.34 96.37 23.54C106.66 10.34 122.42 2 138.84 2C167.91 2 190.75 26.94 190.75 58.68C190.75 97.64 158.66 129.39 110.06 177.63L96.37 191.13Z" fill="#FA0D0D" fill-opacity="1.000000" fill-rule="evenodd"/>
	<path id="矢量 118" d="M82.69 177.52C34.08 129.39 2 97.64 2 58.68C2 26.94 24.83 2 53.9 2C70.32 2 86.09 10.34 96.37 23.54C106.66 10.34 122.42 2 138.84 2C167.91 2 190.75 26.94 190.75 58.68C190.75 97.64 158.66 129.39 110.06 177.63L96.37 191.13L82.69 177.52Z" stroke="#C9C9C9" stroke-opacity="1.000000" stroke-width="4.000000"/>
</svg>
