<svg width="150" height="150" viewBox="0 0 300 300" fill="none" xmlns="http://www.w3.org/2000/svg" xmlns:xlink="http://www.w3.org/1999/xlink">
	<desc>
			Created with Pixso.
	</desc>
	<defs/>
	<path id="Union" d="M0 150C0 67.1573 67.1572 0 150 0C232.843 0 300 67.1573 300 150C300 232.843 232.843 300 150 300C67.1572 300 0 232.843 0 150ZM150 27.2727C82.2195 27.2727 27.2727 82.2196 27.2727 150C27.2727 217.78 82.2195 272.727 150 272.727C217.781 272.727 272.727 217.78 272.727 150C272.727 82.2196 217.781 27.2727 150 27.2727ZM109.091 95.4545C101.56 95.4545 95.4548 101.56 95.4548 109.091C95.4548 116.622 101.56 122.727 109.091 122.727L109.228 122.727C116.759 122.727 122.864 116.622 122.864 109.091C122.864 101.56 116.759 95.4545 109.228 95.4545L109.091 95.4545ZM177.273 109.091C177.273 101.56 183.378 95.4545 190.909 95.4545L191.046 95.4545C198.577 95.4545 204.682 101.56 204.682 109.091C204.682 116.622 198.577 122.727 191.046 122.727L190.909 122.727C183.378 122.727 177.273 116.622 177.273 109.091ZM212.727 215.454C206.721 219.959 198.209 218.759 193.679 212.784L193.616 212.703C193.535 212.6 193.38 212.408 193.155 212.14C192.703 211.601 191.97 210.761 190.971 209.719C188.963 207.623 185.945 204.779 182.036 201.937C174.167 196.214 163.288 190.909 150 190.909C136.712 190.909 125.833 196.214 117.964 201.937C114.055 204.779 111.037 207.623 109.029 209.719C108.03 210.761 107.297 211.601 106.845 212.14C106.62 212.408 106.465 212.6 106.384 212.703L106.321 212.784C101.791 218.759 93.2786 219.959 87.2727 215.454C81.2478 210.935 80.0269 202.388 84.5454 196.363L95.4546 204.545C84.5652 196.378 84.5488 196.359 84.552 196.354L84.5593 196.345L84.575 196.324L84.6123 196.275L84.7107 196.146L85.001 195.775C85.2361 195.478 85.5547 195.084 85.9548 194.607C86.7546 193.654 87.8862 192.363 89.3379 190.849C92.23 187.831 96.4558 183.856 101.923 179.88C112.804 171.967 129.197 163.636 150 163.636C170.803 163.636 187.196 171.967 198.077 179.88C203.544 183.856 207.77 187.831 210.662 190.849C212.114 192.363 213.245 193.654 214.045 194.607C214.445 195.084 214.764 195.478 214.999 195.775L215.289 196.146L215.388 196.275L215.425 196.324L215.441 196.345L215.448 196.354C215.451 196.359 215.438 196.376 204.545 204.545L215.455 196.363C219.973 202.388 218.752 210.935 212.727 215.454Z" clip-rule="evenodd" fill="#2563EA" fill-opacity="1.000000" fill-rule="evenodd"/>
</svg>
