<svg width="50.000000" height="45.000000" viewBox="0 0 50 45" fill="none" xmlns="http://www.w3.org/2000/svg" xmlns:xlink="http://www.w3.org/1999/xlink">
	<desc>
			Created with Pixso.
	</desc>
	<defs/>
	<path id="矢量 80" d="M45.45 16.07C42.95 16.07 40.9 18.96 40.9 22.5L40.9 32.14L9.09 32.14L9.09 22.5C9.09 18.96 7.06 16.07 4.54 16.07C2.02 16.07 0 18.96 0 22.5L0 38.57C0 42.1 2.04 45 4.54 45L45.45 45C47.95 45 50 42.1 50 38.57L50 22.5C50 18.96 47.95 16.07 45.45 16.07ZM38.63 0L11.36 0C8.86 0 6.81 2.89 6.81 6.42L6.81 13.33C9.45 14.65 11.36 18.22 11.36 22.37L11.36 28.92L38.63 28.92L38.63 22.4C38.63 18.22 40.54 14.68 43.18 13.37L43.18 6.42C43.18 2.89 41.13 0 38.63 0Z" fill="#2563EA" fill-opacity="1.000000" fill-rule="evenodd"/>
</svg>
