<svg width="39.375000" height="30.937500" viewBox="0 0 39.375 30.9375" fill="none" xmlns="http://www.w3.org/2000/svg" xmlns:xlink="http://www.w3.org/1999/xlink">
	<desc>
			Created with Pixso.
	</desc>
	<defs>
		<filter id="filter_79_1025_dd" x="0.000000" y="0.000000" width="39.375000" height="30.937500" filterUnits="userSpaceOnUse" color-interpolation-filters="sRGB">
			<feFlood flood-opacity="0" result="BackgroundImageFix"/>
			<feColorMatrix in="SourceAlpha" type="matrix" values="0 0 0 0 0 0 0 0 0 0 0 0 0 0 0 0 0 0 127 0" result="hardAlpha"/>
			<feOffset dx="0" dy="4"/>
			<feGaussianBlur stdDeviation="1.33333"/>
			<feComposite in2="hardAlpha" operator="out" k2="-1" k3="1"/>
			<feColorMatrix type="matrix" values="0 0 0 0 0 0 0 0 0 0 0 0 0 0 0 0 0 0 0.25 0"/>
			<feBlend mode="normal" in2="BackgroundImageFix" result="effect_dropShadow_1"/>
			<feBlend mode="normal" in="SourceGraphic" in2="effect_dropShadow_1" result="shape"/>
		</filter>
	</defs>
	<g filter="url(#filter_79_1025_dd)">
		<rect id="Icon / search" width="14.000000" height="11.000000" transform="translate(12.250000 11.687500)" fill="#FFFFFF" fill-opacity="0"/>
		<path id="search" d="M38.292 25.9875L31.7217 20.8054C33.4443 18.6979 34.4531 16.2035 34.4531 13.5352C34.4531 6.05212 26.7505 0 17.2266 0C7.70264 0 0 6.05212 0 13.5352C0 21.0182 7.70264 27.0703 17.2266 27.0703C20.6475 27.0703 23.8218 26.2582 26.4795 24.9241L33.0752 30.0867C33.7393 30.6088 34.6748 30.9375 35.6836 30.9375C37.7261 30.9375 39.375 29.642 39.375 28.0371C39.375 27.2444 38.9565 26.5095 38.292 25.9875ZM4.92188 13.5352C4.92188 18.8719 10.4346 23.2031 17.2266 23.2031C24.019 23.2031 29.5312 18.8719 29.5312 13.5352C29.5312 8.19849 24.019 3.86719 17.2266 3.86719C10.4346 3.86719 4.92188 8.19849 4.92188 13.5352Z" clip-rule="evenodd" fill="#FFFFFF" fill-opacity="1.000000" fill-rule="evenodd"/>
	</g>
</svg>
