<svg width="45.000000" height="45.000000" viewBox="0 0 45 45" fill="none" xmlns="http://www.w3.org/2000/svg" xmlns:xlink="http://www.w3.org/1999/xlink">
	<desc>
			Created with Pixso.
	</desc>
	<defs/>
	<path id="矢量 20" d="M35 20C35.85 20 36.67 20.1 37.5 20.22L37.5 8.17L18.75 0L0 8.17L0 20.45C0 31.8 8 42.42 18.75 45C20.12 44.67 21.45 44.2 22.75 43.62C21.02 41.17 20 38.2 20 35C20 26.72 26.72 20 35 20Z" fill="#2563EA" fill-opacity="1.000000" fill-rule="evenodd"/>
	<path id="矢量 21" d="M35 25C29.47 25 25 29.47 25 35C25 40.52 29.47 45 35 45C40.52 45 45 40.52 45 35C45 29.47 40.52 25 35 25ZM35 28.45C36.54 28.45 37.79 29.72 37.79 31.25C37.79 32.77 36.52 34.05 35 34.05C33.47 34.05 32.2 32.77 32.2 31.25C32.2 29.72 33.45 28.45 35 28.45ZM35 41.87C32.67 41.87 30.64 40.72 29.39 38.95C29.52 37.15 33.17 36.25 35 36.25C36.82 36.25 40.47 37.15 40.6 38.95C39.35 40.72 37.32 41.87 35 41.87Z" fill="#2563EA" fill-opacity="1.000000" fill-rule="evenodd"/>
</svg>
