<svg width="20" height="20" viewBox="0 0 210 189" fill="none" xmlns="http://www.w3.org/2000/svg" xmlns:xlink="http://www.w3.org/1999/xlink">
	<desc>
			Created with Pixso.
	</desc>
	<defs/>
	<rect id="Icon-display" width="210.000000" height="189.000000" fill="#FFFFFF" fill-opacity="0"/>
	<path id="desktop" d="M26.25 0L183.75 0C198.18 0 210 10.63 210 23.62L210 129.93C210 142.93 198.18 153.56 183.75 153.56L26.25 153.56C11.81 153.56 0 142.93 0 129.93L0 23.62C0 10.63 11.81 0 26.25 0ZM26.25 118.12L183.75 118.12L183.75 23.62L26.25 23.62L26.25 118.12ZM177.18 129.93C168 129.93 169.31 141.75 177.18 141.75C186.37 141.75 186.37 129.93 177.18 129.93ZM78.75 165.37L131.25 165.37C148.31 165.37 148.31 189 131.25 189L78.75 189C61.68 189 60.37 165.37 78.75 165.37Z" fill="#2563EA" fill-opacity="1.000000" fill-rule="evenodd"/>
</svg>
