<svg width="20" height="20" viewBox="0 0 210 189" fill="none" xmlns="http://www.w3.org/2000/svg" xmlns:xlink="http://www.w3.org/1999/xlink">
	<desc>
			Created with Pixso.
	</desc>
	<defs/>
	<path id="矢量 97" d="M29.5 189C45.79 189 59 177.13 59 162.5C59 147.86 45.79 136 29.5 136C13.2 136 0 147.86 0 162.5C0 177.13 13.2 189 29.5 189Z" fill="#2563EA" fill-opacity="1.000000" fill-rule="evenodd"/>
	<path id="矢量 98" d="M0 0L0 34.19C94.87 34.19 171.8 103.06 171.8 188L210 188C210 84.21 115.93 0 0 0ZM0 68.38L0 102.57C52.63 102.57 95.41 140.87 95.41 188L133.61 188C133.61 121.91 73.82 68.38 0 68.38Z" fill="#2563EA" fill-opacity="1.000000" fill-rule="evenodd"/>
</svg>
